<mxfile host="Electron" modified="2024-02-11T03:49:39.108Z" agent="Mozilla/5.0 (Windows NT 10.0; Win64; x64) AppleWebKit/537.36 (KHTML, like Gecko) draw.io/23.0.2 Chrome/120.0.6099.109 Electron/28.1.0 Safari/537.36" etag="lIl-dgLPX90F1gNKIygJ" version="23.0.2" type="device">
  <diagram name="Page-1" id="saovHSr9PpH2XRI_3diu">
    <mxGraphModel dx="6586" dy="4816" grid="1" gridSize="10" guides="1" tooltips="1" connect="1" arrows="1" fold="1" page="1" pageScale="1" pageWidth="850" pageHeight="1400" math="0" shadow="0">
      <root>
        <mxCell id="0" />
        <mxCell id="1" parent="0" />
        <mxCell id="Ha_WOfQNurw3RahJSwxn-1" value="" style="rounded=0;whiteSpace=wrap;html=1;sketch=1;hachureGap=4;jiggle=2;curveFitting=1;fontFamily=Architects Daughter;fontSource=https%3A%2F%2Ffonts.googleapis.com%2Fcss%3Ffamily%3DArchitects%2BDaughter;fontSize=20;" vertex="1" parent="1">
          <mxGeometry x="-800" y="-1320" width="1440" height="3120" as="geometry" />
        </mxCell>
        <mxCell id="Ha_WOfQNurw3RahJSwxn-2" value="SIGN IN" style="rounded=0;whiteSpace=wrap;html=1;sketch=1;hachureGap=4;jiggle=2;curveFitting=1;fontFamily=Architects Daughter;fontSource=https%3A%2F%2Ffonts.googleapis.com%2Fcss%3Ffamily%3DArchitects%2BDaughter;fontSize=55;strokeWidth=0;strokeColor=none;" vertex="1" parent="1">
          <mxGeometry x="-800" y="-1190" width="480" height="170" as="geometry" />
        </mxCell>
        <mxCell id="Ha_WOfQNurw3RahJSwxn-3" value="* Email Address:" style="rounded=0;whiteSpace=wrap;html=1;sketch=1;hachureGap=4;jiggle=2;curveFitting=1;fontFamily=Architects Daughter;fontSource=https%3A%2F%2Ffonts.googleapis.com%2Fcss%3Ffamily%3DArchitects%2BDaughter;fontSize=45;strokeWidth=0;strokeColor=none;" vertex="1" parent="1">
          <mxGeometry x="-730" y="-960" width="480" height="170" as="geometry" />
        </mxCell>
        <mxCell id="Ha_WOfQNurw3RahJSwxn-4" value="* Password" style="rounded=0;whiteSpace=wrap;html=1;sketch=1;hachureGap=4;jiggle=2;curveFitting=1;fontFamily=Architects Daughter;fontSource=https%3A%2F%2Ffonts.googleapis.com%2Fcss%3Ffamily%3DArchitects%2BDaughter;fontSize=45;strokeWidth=0;fillColor=default;strokeColor=none;" vertex="1" parent="1">
          <mxGeometry x="-780" y="-700" width="480" height="170" as="geometry" />
        </mxCell>
        <mxCell id="Ha_WOfQNurw3RahJSwxn-5" value="" style="rounded=1;whiteSpace=wrap;html=1;sketch=1;hachureGap=4;jiggle=2;curveFitting=1;fontFamily=Architects Daughter;fontSource=https%3A%2F%2Ffonts.googleapis.com%2Fcss%3Ffamily%3DArchitects%2BDaughter;fontSize=20;strokeWidth=8;" vertex="1" parent="1">
          <mxGeometry x="-670" y="-820" width="1170" height="110" as="geometry" />
        </mxCell>
        <mxCell id="Ha_WOfQNurw3RahJSwxn-7" value="&lt;u&gt;Forgot password?&lt;/u&gt;" style="rounded=0;whiteSpace=wrap;html=1;sketch=1;hachureGap=4;jiggle=2;curveFitting=1;fontFamily=Architects Daughter;fontSource=https%3A%2F%2Ffonts.googleapis.com%2Fcss%3Ffamily%3DArchitects%2BDaughter;fontSize=45;strokeWidth=0;fillColor=default;strokeColor=none;" vertex="1" parent="1">
          <mxGeometry x="-680" y="-460" width="480" height="170" as="geometry" />
        </mxCell>
        <mxCell id="Ha_WOfQNurw3RahJSwxn-6" value="" style="rounded=1;whiteSpace=wrap;html=1;sketch=1;hachureGap=4;jiggle=2;curveFitting=1;fontFamily=Architects Daughter;fontSource=https%3A%2F%2Ffonts.googleapis.com%2Fcss%3Ffamily%3DArchitects%2BDaughter;fontSize=20;strokeWidth=8;" vertex="1" parent="1">
          <mxGeometry x="-670" y="-540" width="1180" height="110" as="geometry" />
        </mxCell>
        <mxCell id="Ha_WOfQNurw3RahJSwxn-8" value="SIGN IN" style="rounded=0;whiteSpace=wrap;html=1;sketch=1;hachureGap=4;jiggle=2;curveFitting=1;fontFamily=Architects Daughter;fontSource=https%3A%2F%2Ffonts.googleapis.com%2Fcss%3Ffamily%3DArchitects%2BDaughter;fontSize=100;strokeWidth=8;" vertex="1" parent="1">
          <mxGeometry x="-650" y="-240" width="1140" height="200" as="geometry" />
        </mxCell>
        <mxCell id="Ha_WOfQNurw3RahJSwxn-9" value="or" style="rounded=0;whiteSpace=wrap;html=1;sketch=1;hachureGap=4;jiggle=2;curveFitting=1;fontFamily=Architects Daughter;fontSource=https%3A%2F%2Ffonts.googleapis.com%2Fcss%3Ffamily%3DArchitects%2BDaughter;fontSize=45;strokeWidth=0;fillColor=default;strokeColor=none;" vertex="1" parent="1">
          <mxGeometry x="-350" y="120" width="480" height="170" as="geometry" />
        </mxCell>
        <mxCell id="Ha_WOfQNurw3RahJSwxn-11" value="Create Account" style="rounded=0;whiteSpace=wrap;html=1;sketch=1;hachureGap=4;jiggle=2;curveFitting=1;fontFamily=Architects Daughter;fontSource=https%3A%2F%2Ffonts.googleapis.com%2Fcss%3Ffamily%3DArchitects%2BDaughter;fontSize=100;strokeWidth=8;" vertex="1" parent="1">
          <mxGeometry x="-640" y="500" width="1140" height="200" as="geometry" />
        </mxCell>
      </root>
    </mxGraphModel>
  </diagram>
</mxfile>
